<?xml version="1.0" encoding="utf-8"?>
<!-- Generator: Adobe Illustrator 24.1.0, SVG Export Plug-In . SVG Version: 6.00 Build 0)  -->
<svg version="1.1" id="圖層_1" xmlns="http://www.w3.org/2000/svg" xmlns:xlink="http://www.w3.org/1999/xlink" x="0px" y="0px"
	 viewBox="0 0 595.28 841.89" style="enable-background:new 0 0 595.28 841.89;" xml:space="preserve">
<style type="text/css">
	.st0{fill:#000000;}
</style>
<path d="M-218.03,163.51c-6.91-12.68-13.49-24.79-20.1-36.89c-4.03-7.37-8.15-14.68-12.16-22.06c-12.9-23.75,4.23-53.17,31.22-53.66
	c17.79-0.32,33.03,11.6,36.64,28.84c1.88,8.97,0.47,17.53-3.96,25.59c-10.01,18.22-19.99,36.45-29.96,54.69
	C-216.92,161.04-217.37,162.13-218.03,163.51z M-203.76,108.01c0.04-7.1-5.87-13.08-12.97-13.1c-7.07-0.02-13.06,5.98-13.03,13.05
	c0.03,7,5.87,12.89,12.85,12.97C-209.82,121.01-203.8,115.09-203.76,108.01z"/>
<path d="M-122.56,125.82c-3.87-7.06-7.86-13.7-11.21-20.65c-2.31-4.8-1.44-9.72,2.35-13.64c3.66-3.79,8.23-4.98,13.26-3.14
	c4.89,1.79,7.69,5.49,8.15,10.64c0.18,1.99-0.11,4.3-1,6.05c-3.37,6.68-7.07,13.19-10.66,19.75
	C-121.82,125.11-122.1,125.32-122.56,125.82z M-117.38,107.4c0.1-2.4-2.05-4.59-4.55-4.65c-2.34-0.05-4.23,1.76-4.37,4.18
	c-0.16,2.68,1.66,4.68,4.29,4.73C-119.56,111.7-117.47,109.78-117.38,107.4z"/>
<path class="st0" d="M-247,139.19c-0.04,7.08-6.06,13-13.14,12.92c-6.98-0.08-12.82-5.97-12.85-12.97
	c-0.03-7.07,5.96-13.06,13.03-13.05C-252.87,126.11-246.96,132.09-247,139.19z"/>
<path class="st0" d="M-117.38,107.4c-0.1,2.38-2.19,4.3-4.63,4.25c-2.63-0.05-4.45-2.05-4.29-4.73c0.14-2.42,2.03-4.23,4.37-4.18
	C-119.43,102.81-117.28,105-117.38,107.4z"/>
<path d="M99,314"/>
<g>
	<path d="M241.37,465.8c-10.21-41.48-44.44-71.91-88.76-75.45c-25.06-2-48,4.84-67.98,20.4c-22.19,17.28-34.92,40.15-38,68.03
		c-2.04,18.49,0.57,36.62,9.37,53.18c14.91,28.07,30.47,55.79,45.64,83.72c12.8,23.57,25.42,47.23,38.12,70.85
		c1.64,3.04,3.25,6.1,4.88,9.15c0.42-0.05,0.84-0.11,1.26-0.16c2.01-4.16,3.88-8.4,6.05-12.47c6.2-11.6,12.49-23.16,18.81-34.7
		c20.27-37.02,40.62-73.99,60.84-111.04C243.91,514.76,247.52,490.78,241.37,465.8z M144.91,534.96
		c-23.38-0.13-42.97-19.73-42.75-42.76c0.23-23.94,19.73-43.39,43.37-43.26c23.52,0.13,42.83,19.8,42.59,43.38
		C187.89,516.16,168.7,535.09,144.91,534.96z"/>
	<path d="M533.21,515.65c-6.16-25.03-26.81-43.39-53.55-45.52c-15.12-1.21-28.96,2.92-41.01,12.31
		c-13.39,10.43-21.07,24.22-22.92,41.05c-1.23,11.16,0.34,22.09,5.65,32.08c8.99,16.94,18.38,33.66,27.54,50.51
		c7.72,14.22,15.34,28.49,23,42.75c0.99,1.84,1.96,3.68,2.94,5.52c0.25-0.03,0.51-0.07,0.76-0.1c1.21-2.51,2.34-5.07,3.65-7.52
		c3.74-7,7.54-13.97,11.35-20.93c12.23-22.33,24.51-44.64,36.71-66.99C534.75,545.18,536.92,530.72,533.21,515.65z M475.02,557.37
		c-14.11-0.08-25.93-11.9-25.79-25.8c0.14-14.45,11.9-26.18,26.17-26.1c14.19,0.08,25.84,11.94,25.7,26.17
		C500.95,546.03,489.37,557.45,475.02,557.37z"/>
	<path d="M439.53,352.69c-3.72-15.11-16.18-26.19-32.32-27.48c-9.12-0.73-17.48,1.76-24.75,7.43c-8.08,6.29-12.71,14.62-13.84,24.78
		c-0.74,6.73,0.21,13.33,3.41,19.37c5.43,10.22,11.1,20.32,16.62,30.49c4.66,8.58,9.26,17.2,13.88,25.8
		c0.6,1.11,1.18,2.22,1.78,3.33c0.15-0.02,0.31-0.04,0.46-0.06c0.73-1.52,1.41-3.06,2.2-4.54c2.26-4.23,4.55-8.43,6.85-12.64
		c7.38-13.48,14.79-26.94,22.16-40.44C440.45,370.52,441.77,361.79,439.53,352.69z M404.4,377.87c-8.51-0.05-15.65-7.18-15.57-15.57
		c0.08-8.72,7.19-15.8,15.79-15.75c8.57,0.05,15.6,7.21,15.51,15.8C420.05,371.03,413.06,377.92,404.4,377.87z"/>
	<g>
		<path d="M156.65,702.56c13.29-0.9,26.72-2.04,40.06-3.29c13.36-1.26,26.71-2.66,40.04-4.21c26.65-3.12,53.24-6.82,79.58-11.56
			c13.17-2.38,26.27-5.03,39.24-8.13c12.95-3.11,25.79-6.63,38.18-11.08c6.18-2.23,12.24-4.7,17.98-7.59
			c5.7-2.89,11.18-6.22,15.37-10.26c2.07-2.01,3.76-4.2,4.72-6.42c0.97-2.22,1.21-4.4,0.74-6.71c-0.46-2.31-1.7-4.74-3.39-7.05
			c-1.69-2.32-3.81-4.52-6.13-6.59c-4.67-4.14-10.06-7.78-15.67-11.12c-2.8-1.67-5.69-3.23-8.64-4.88l-8.83-4.86
			c-11.79-6.45-23.66-12.76-35.58-19.05c-11.91-6.29-23.87-12.53-35.72-19.08c-5.92-3.29-11.82-6.65-17.61-10.29
			c-5.77-3.66-11.5-7.49-16.71-12.34c-2.57-2.45-5.06-5.17-6.85-8.64c-0.88-1.73-1.55-3.69-1.76-5.76
			c-0.21-2.07,0.08-4.21,0.75-6.11c1.38-3.84,3.91-6.71,6.51-9.15c2.61-2.43,5.54-4.5,8.34-6.31c11.2-7.59,22.68-14.74,34.31-21.59
			c23.28-13.69,47.12-26.35,71.53-37.78c-23.95,12.35-47.27,25.9-69.92,40.4c-11.32,7.27-22.45,14.81-33.27,22.75l-2.04,1.47
			c-0.66,0.49-1.31,0.97-1.94,1.48c-1.27,1-2.48,2.05-3.6,3.15c-2.23,2.19-4.15,4.67-4.96,7.25c-0.84,2.56-0.44,5.14,0.94,7.65
			c1.37,2.5,3.53,4.81,5.89,6.91c4.79,4.21,10.41,7.77,16.11,11.15c5.73,3.36,11.63,6.51,17.58,9.58
			c11.92,6.14,24.04,12.01,36.13,17.95c12.1,5.93,24.21,11.92,36.24,18.05l9.02,4.63c2.98,1.53,6.04,3.14,9.05,4.88
			c6.01,3.46,11.91,7.28,17.41,12c2.74,2.37,5.37,5,7.71,8.08c2.31,3.08,4.38,6.71,5.34,11.01c0.47,2.14,0.65,4.41,0.42,6.66
			c-0.21,2.24-0.79,4.43-1.62,6.42c-1.68,4.01-4.23,7.22-6.93,9.94c-2.72,2.72-5.66,4.98-8.66,7.01c-3.01,2.03-6.1,3.8-9.22,5.44
			c-6.25,3.27-12.66,5.97-19.11,8.42c-12.92,4.86-26.05,8.66-39.25,12.03c-13.2,3.36-26.47,6.25-39.79,8.86
			c-26.63,5.2-53.39,9.32-80.21,12.87c-13.41,1.77-26.84,3.38-40.29,4.84c-13.46,1.46-26.87,2.8-40.45,3.93L156.65,702.56z"/>
	</g>
</g>
</svg>
